<?xml version="1.0" encoding="UTF-8" standalone="no"?>
<!-- Generator: Adobe Illustrator 24.0.3, SVG Export Plug-In . SVG Version: 6.00 Build 0)  -->

<svg
   version="1.1"
   id="Layer_1"
   x="0px"
   y="0px"
   viewBox="0 0 16384 16384"
   xml:space="preserve"
   width="16384"
   height="16384"
   xmlns="http://www.w3.org/2000/svg"
   xmlns:svg="http://www.w3.org/2000/svg"><defs
   id="defs267" />
<g
   id="hairGroup_2_"
   transform="matrix(-1,0,0,1,127.27118,0)">
	<path
   id="hair_3_"
   style="fill:#543930"
   d="m 85.23,81.6 c -1.25,-2.27 0.34,-4.58 3.06,-7.44 4.31,-4.54 9,-15.07 4.64,-25.76 0.03,-0.06 -0.86,-1.86 -0.83,-1.92 l -1.79,-0.09 c -0.57,-0.08 -20.26,-0.12 -39.97,-0.12 -19.71,0 -39.4,0.04 -39.97,0.12 0,0 -2.65,1.95 -2.63,2.01 -4.35,10.69 0.34,21.22 4.64,25.76 2.71,2.86 4.3,5.17 3.06,7.44 -1.21,2.21 -4.81,2.53 -4.81,2.53 0,0 0.83,2.26 2.83,3.48 1.85,1.13 4.13,1.39 5.7,1.43 0,0 6.15,3.51 22.23,3.51 h 8.95 8.95 c 16.08,0 22.23,-3.51 22.23,-3.51 1.57,-0.04 3.85,-0.3 5.7,-1.43 2,-1.22 2.83,-3.48 2.83,-3.48 0,0 -3.61,-0.32 -4.82,-2.53 z" />
	<g
   id="hairHighlights_2_">
		
			<radialGradient
   id="SVGID_1_"
   cx="91.724098"
   cy="50.372799"
   r="6.9208999"
   gradientTransform="matrix(-0.9057,0.4238,-0.3144,-0.6719,186.8943,75.389)"
   gradientUnits="userSpaceOnUse">
			<stop
   offset="0.6628"
   style="stop-color:#6D4C41"
   id="stop3" />
			<stop
   offset="1"
   style="stop-color:#6D4C41;stop-opacity:0"
   id="stop5" />
		</radialGradient>
		<path
   style="fill:url(#SVGID_1_)"
   d="m 81.43,84.91 c -4.28,-6.5 5.21,-8.93 5.21,-8.93 0,0 0.01,0.01 0.01,0.01 -1.65,2.05 -2.4,3.84 -1.43,5.61 1.21,2.21 4.81,2.53 4.81,2.53 0,0 -4.91,4.36 -8.6,0.78 z"
   id="path8" />
		
			<radialGradient
   id="SVGID_2_"
   cx="110.2503"
   cy="67.0522"
   r="30.3992"
   gradientTransform="matrix(-0.0746,-0.9972,0.8311,-0.0622,22.5434,174.9548)"
   gradientUnits="userSpaceOnUse">
			<stop
   offset="0.7247"
   style="stop-color:#6D4C41;stop-opacity:0"
   id="stop10" />
			<stop
   offset="1"
   style="stop-color:#6D4C41"
   id="stop12" />
		</radialGradient>
		<path
   style="fill:url(#SVGID_2_)"
   d="m 92.95,48.4 c 4.25,10.35 -0.22,21.01 -4.41,25.51 -0.57,0.62 -3.01,3.01 -3.57,4.92 0,0 -9.54,-13.31 -12.39,-21.13 -0.57,-1.58 -1.1,-3.2 -1.17,-4.88 -0.05,-1.26 0.14,-2.76 0.87,-3.83 0.89,-1.31 20.16,-1.7 20.16,-1.7 0,0.02 0.51,1.11 0.51,1.11 z"
   id="path15" />
		
			<radialGradient
   id="SVGID_3_"
   cx="32.563499"
   cy="69.445198"
   r="30.3992"
   gradientTransform="matrix(0.0746,-0.9972,-0.8311,-0.0622,85.926,97.6335)"
   gradientUnits="userSpaceOnUse">
			<stop
   offset="0.7247"
   style="stop-color:#6D4C41;stop-opacity:0"
   id="stop17" />
			<stop
   offset="1"
   style="stop-color:#6D4C41"
   id="stop19" />
		</radialGradient>
		<path
   style="fill:url(#SVGID_3_)"
   d="m 7.73,48.4 c -4.24,10.35 0.23,21.01 4.41,25.5 0.57,0.62 3.01,3.01 3.57,4.92 0,0 9.54,-13.31 12.39,-21.13 0.58,-1.58 1.1,-3.2 1.17,-4.88 0.05,-1.26 -0.14,-2.76 -0.87,-3.83 -0.89,-1.31 -1.93,-0.96 -3.44,-0.96 -2.88,0 -15.49,-0.74 -16.47,-0.74 0.01,0.03 -0.76,1.12 -0.76,1.12 z"
   id="path22" />
		
			<radialGradient
   id="SVGID_4_"
   cx="12.375"
   cy="49.230099"
   r="6.9208999"
   gradientTransform="matrix(0.9057,0.4238,0.3144,-0.6719,-13.9815,108.2508)"
   gradientUnits="userSpaceOnUse">
			<stop
   offset="0.6628"
   style="stop-color:#6D4C41"
   id="stop24" />
			<stop
   offset="1"
   style="stop-color:#6D4C41;stop-opacity:0"
   id="stop26" />
		</radialGradient>
		<path
   style="fill:url(#SVGID_4_)"
   d="m 19.26,84.91 c 4.28,-6.5 -5.21,-8.93 -5.21,-8.93 0,0 -0.01,0.01 -0.01,0.01 1.65,2.05 2.4,3.84 1.43,5.61 -1.21,2.21 -4.81,2.53 -4.81,2.53 0,0 4.9,4.36 8.6,0.78 z"
   id="path29" />
	</g>
</g>
<g
   id="suit_1_"
   transform="matrix(-1,0,0,1,127.27118,0)">
	<g
   id="g48">
		
			<linearGradient
   id="SVGID_5_"
   gradientUnits="userSpaceOnUse"
   x1="53"
   y1="34.7402"
   x2="53"
   y2="-4.3297"
   gradientTransform="matrix(1,0,0,-1,0,130)">
			<stop
   offset="0.1609"
   style="stop-color:#9c0021"
   id="stop33" />
			<stop
   offset="0.2878"
   style="stop-color:#9c0021"
   id="stop35" />
			<stop
   offset="0.449"
   style="stop-color:#94001f"
   id="stop37" />
			<stop
   offset="0.6836"
   style="stop-color:#82001b"
   id="stop39" />
			<stop
   offset="0.962"
   style="stop-color:#620014"
   id="stop41" />
			<stop
   offset="1"
   style="stop-color:#5c0011"
   id="stop43" />
		</linearGradient>
		<path
   style="fill:url(#SVGID_5_)"
   d="M 50.1,95.4 H 50 c -18.1,0 -36.8,3.7 -46,12.2 v 2.3 2.1 11.9 h 95 1.5 1.5 v -3.4 C 102,103.7 75.7,95.4 50.1,95.4 Z"
   id="path46" />
	</g>
	<path
   style="fill:#7c001a"
   d="m 50.1,79.99 c -15.96,0 -28.99,4.06 -28.99,8.97 0,3.12 4.91,5.76 12.37,7.37 4.06,0.85 7.46,22.1 12.28,27.57 h 5.95 c 8.4,-5.57 16.9,-27.57 21.53,-29.56 3.59,-1.51 5.76,-3.4 5.76,-5.38 -0.01,-5 -12.94,-8.97 -28.9,-8.97 z"
   id="path50" />
</g>
<path
   id="neck"
   style="fill:#e59600"
   d="m 67.871183,93.42 h 18.16 v 9.98 c 0,4.51 -3.7,8.17 -8.26,8.17 h -1.65 c -4.56,0 -8.26,-3.66 -8.26,-8.17 v -9.98 z" />
<polygon
   id="shirt"
   style="fill:#bdbdbd"
   points="60.6,105 39.4,105 42.08,123.9 58.58,123.9 "
   transform="matrix(-1,0,0,1,127.27118,0)" />
<g
   id="suit"
   transform="matrix(-1,0,0,1,127.27118,0)">
	<g
   id="g61">
		<g
   id="g59">
			<g
   id="g57">
				<path
   style="fill:#9c0021"
   d="m 116.99,123.9 -2.19,-11.5 -9.9,-2.5 c -3.3,-0.8 -6.5,1.3 -7,4.7 0,0 -0.71,2.8 -2.21,9.3 z"
   id="path55" />
			</g>
		</g>
	</g>
	<g
   id="g67">
		<g
   id="g65">
			<ellipse
   style="fill:#7c001a"
   cx="106.5"
   cy="114.4"
   rx="8.6999998"
   ry="8"
   id="ellipse63" />
		</g>
	</g>
	<g
   id="g83">
		<g
   id="g81">
			<g
   id="g79">
				<path
   style="fill:#bc0027"
   d="m 24.55,97.46 -0.3,-0.15 c -0.59,-0.29 -12.34,-1.25 -18.81,6.56 -0.87,1.04 -0.96,2.32 -0.2,3.38 l 3.1,3.7 c 0.71,0.85 1.69,1.51 2.61,1.51 0.36,0 0.72,-0.1 1.04,-0.33 8.17,-5.79 12.84,-6.06 15.32,-5.26 l 2.25,0.72 z"
   id="path69" />
				<circle
   style="fill:#b00025;stroke:#da002e;stroke-miterlimit:10"
   cx="11.3"
   cy="105.5"
   r="2.7"
   id="circle71" />
				<g
   id="g77">
					<circle
   style="fill:#7e001a"
   cx="12.2"
   cy="105.6"
   r="0.60000002"
   id="circle73" />
					<circle
   style="fill:#7e001a"
   cx="10.4"
   cy="105.3"
   r="0.60000002"
   id="circle75" />
				</g>
			</g>
		</g>
	</g>
	<g
   id="g99">
		<g
   id="g97">
			<g
   id="g95">
				<path
   style="fill:#bc0027"
   d="m 92.67,103.86 v 0 C 86.1,96.06 74.43,97.01 73.85,97.31 l -0.3,0.15 -4.99,10.12 2.25,-0.72 c 2.48,-0.8 7.15,-0.53 15.25,5.22 0.32,0.27 0.68,0.38 1.05,0.38 1,0 2.07,-0.81 2.65,-1.5 l 3.15,-3.76 c 0.72,-1.02 0.63,-2.3 -0.24,-3.34 z"
   id="path85" />
				<circle
   style="fill:#b00025;stroke:#da002e;stroke-miterlimit:10"
   cx="86.699997"
   cy="105.5"
   r="2.7"
   id="circle87" />
				<g
   id="g93">
					<circle
   style="fill:#7e001a"
   cx="85.800003"
   cy="105.6"
   r="0.60000002"
   id="circle89" />
					<circle
   style="fill:#7e001a"
   cx="87.699997"
   cy="105.3"
   r="0.60000002"
   id="circle91" />
				</g>
			</g>
		</g>
	</g>
	<g
   id="g135">
		<g
   id="g133">
			<g
   id="g131">
				
					<linearGradient
   id="SVGID_6_"
   gradientUnits="userSpaceOnUse"
   x1="33.950001"
   y1="-1252.8019"
   x2="33.950001"
   y2="-1294.0343"
   gradientTransform="matrix(1,0,0,-1,0,-1158.0001)">
					<stop
   offset="0.1252"
   style="stop-color:#b00025"
   id="stop101" />
					<stop
   offset="0.2997"
   style="stop-color:#ac0024"
   id="stop103" />
					<stop
   offset="0.5018"
   style="stop-color:#9e0021"
   id="stop105" />
					<stop
   offset="0.7177"
   style="stop-color:#86001c"
   id="stop107" />
					<stop
   offset="0.9419"
   style="stop-color:#660015"
   id="stop109" />
					<stop
   offset="1"
   style="stop-color:#5c0011"
   id="stop111" />
				</linearGradient>
				<path
   style="fill:url(#SVGID_6_)"
   d="M 46.6,123.9 43.4,96.5 c -0.2,-0.8 -0.8,-1.4 -1.5,-1.4 v 0 c -0.8,0.1 -1.6,0.1 -2.3,0.1 C 31.8,95.2 24.8,92 21.3,90 l 11.4,33.9 z"
   id="path114" />
				
					<linearGradient
   id="SVGID_7_"
   gradientUnits="userSpaceOnUse"
   x1="66.050003"
   y1="-1252.775"
   x2="66.050003"
   y2="-1294.0343"
   gradientTransform="matrix(1,0,0,-1,0,-1158.0001)">
					<stop
   offset="0.1252"
   style="stop-color:#b00025"
   id="stop116" />
					<stop
   offset="0.2997"
   style="stop-color:#ac0024"
   id="stop118" />
					<stop
   offset="0.5018"
   style="stop-color:#9e0021"
   id="stop120" />
					<stop
   offset="0.7177"
   style="stop-color:#86001c"
   id="stop122" />
					<stop
   offset="0.9419"
   style="stop-color:#660015"
   id="stop124" />
					<stop
   offset="1"
   style="stop-color:#5c0011"
   id="stop126" />
				</linearGradient>
				<path
   style="fill:url(#SVGID_7_)"
   d="M 67.4,123.9 78.8,90 c -3.5,2 -10.6,5.2 -18,5.2 -0.9,0 -1.8,0 -2.6,-0.2 h -0.1 c -0.6,0 -1.2,0.6 -1.4,1.4 l -3.4,27.5 z"
   id="path129" />
			</g>
		</g>
	</g>
</g>
<g
   id="face"
   transform="matrix(-1,0,0,1,127.27118,0)">
	<path
   id="ears"
   style="fill:#f29400"
   d="M 77.36,50.37 H 22.7 c -5.89,0 -10.71,5.14 -10.71,11.41 0,6.28 4.82,11.41 10.71,11.41 h 54.65 c 5.89,0 10.71,-5.14 10.71,-11.41 0.01,-6.28 -4.81,-11.41 -10.7,-11.41 z" />
	<path
   id="head"
   style="fill:#ffc732"
   d="M 50.03,11 C 32.63,11 16.51,29.61 16.51,56.39 16.51,83.03 33.12,96.2 50.03,96.2 66.94,96.2 83.55,83.03 83.55,56.39 83.55,29.61 67.43,11 50.03,11 Z" />
	<g
   id="eyes">
		<ellipse
   style="fill:#593232"
   cx="34.459999"
   cy="58.75"
   rx="4.9299998"
   ry="5.0999999"
   id="ellipse140" />
		<ellipse
   style="fill:#593232"
   cx="65.860001"
   cy="60.130001"
   rx="5.9200001"
   ry="6.1300001"
   id="ellipse142" />
	</g>
	<g
   id="eyebrows_3_">
		<path
   style="fill:#8e422b"
   d="m 41.89,50.83 c -0.93,-1.23 -3.07,-3.01 -7.23,-3.01 -4.16,0 -6.31,1.79 -7.23,3.01 -0.41,0.54 -0.31,1.17 -0.02,1.55 0.26,0.35 1.04,0.68 1.9,0.39 0.86,-0.29 2.54,-1.16 5.35,-1.18 2.81,0.02 4.49,0.89 5.35,1.18 0.86,0.29 1.64,-0.03 1.9,-0.39 0.29,-0.38 0.39,-1 -0.02,-1.55 z"
   id="path145" />
		<path
   style="fill:#8e422b"
   d="m 75.48,50.59 c -1.11,-1.47 -3.68,-3.61 -8.67,-3.61 -4.99,0 -7.56,2.14 -8.67,3.61 -0.49,0.65 -0.37,1.4 -0.03,1.86 0.32,0.42 1.25,0.81 2.28,0.46 1.03,-0.35 3.05,-1.39 6.42,-1.42 3.37,0.02 5.39,1.07 6.42,1.42 1.03,0.35 1.96,-0.04 2.28,-0.46 0.33,-0.46 0.46,-1.21 -0.03,-1.86 z"
   id="path147" />
	</g>
	<path
   id="nose"
   style="fill:#f29400"
   d="M 53.89,67.8 C 53.78,67.76 53.68,67.73 53.57,67.72 H 46.5 c -0.11,0.01 -0.22,0.04 -0.32,0.08 -0.64,0.26 -0.99,0.92 -0.69,1.63 0.3,0.71 1.71,2.69 4.55,2.69 2.84,0 4.25,-1.99 4.55,-2.69 0.29,-0.7 -0.06,-1.37 -0.7,-1.63 z" />
	<path
   id="mouth"
   style="fill:#9b4930"
   d="m 58.56,75.89 c -3.19,1.89 -13.63,1.89 -16.81,0 -1.83,-1.09 -3.7,0.58 -2.94,2.24 0.75,1.63 6.45,5.42 11.37,5.42 4.92,0 10.55,-3.79 11.3,-5.42 0.75,-1.67 -1.09,-3.33 -2.92,-2.24 z" />
</g>
<g
   id="hairGroup_1_"
   transform="matrix(-1,0,0,1,127.27118,0)">
	<path
   id="hair"
   style="fill:#543930"
   d="M 66.86,7.62 C 53.63,3.43 45.02,8.13 40.39,10.65 39.43,11.17 10.23,33.16 10.93,35.13 c -2.52,2.14 -5.69,6.69 -3.52,12.6 1.64,4.45 8.17,6.5 8.17,6.5 -0.46,8.01 1.03,12.94 1.82,14.93 0.14,0.35 0.63,0.32 0.72,-0.04 0.99,-3.96 4.36,-17.8 4.03,-20.21 0,0 11.34,-2.25 22.17,-10.22 2.2,-1.62 4.59,-3 7.13,-4.01 13.6,-5.41 16.45,3.82 16.45,3.82 0,0 9.42,-1.81 12.26,11.27 1.07,4.9 1.79,12.75 2.4,18.24 0.04,0.39 0.57,0.47 0.72,0.11 0.95,-2.18 2.85,-6.5 3.3,-10.91 0.16,-1.55 3.81,-5.62 5.6,-12.27 C 94.59,36.06 71.75,9.18 66.86,7.62 Z" />
	
		<radialGradient
   id="hairHighlights_1_"
   cx="24.7372"
   cy="84.465897"
   r="16.885599"
   gradientTransform="matrix(0.9907,0.1363,0.1915,-1.3921,-15.8158,159.355)"
   gradientUnits="userSpaceOnUse">
		<stop
   offset="0.5981"
   style="stop-color:#6D4C41;stop-opacity:0"
   id="stop154" />
		<stop
   offset="1"
   style="stop-color:#6D4C41"
   id="stop156" />
	</radialGradient>
	<path
   id="hairHighlights"
   style="fill:url(#hairHighlights_1_)"
   d="m 10.7,35.33 c -2.37,2.1 -5.56,6.79 -3.21,12.61 1.77,4.39 8.09,6.29 8.09,6.29 0,0.02 1.26,0.4 1.91,0.4 l 1.48,-21.9 c -3.03,0 -5.94,0.91 -7.82,2.22 0.03,0.03 -0.46,0.35 -0.45,0.38 z" />
</g>
<g
   id="hat"
   transform="matrix(-1,0,0,1,127.27118,0)">
	
		<radialGradient
   id="SVGID_8_"
   cx="117.2041"
   cy="-1548.2715"
   r="61.737801"
   gradientTransform="matrix(0.9182,0,0,-0.7823,-57.6668,-1176.2109)"
   gradientUnits="userSpaceOnUse">
		<stop
   offset="3.200000e-03"
   style="stop-color:#b00025"
   id="stop161" />
		<stop
   offset="0.3326"
   style="stop-color:#a40022"
   id="stop163" />
		<stop
   offset="0.9409"
   style="stop-color:#82001b"
   id="stop165" />
		<stop
   offset="1"
   style="stop-color:#7e001a"
   id="stop167" />
	</radialGradient>
	<path
   style="fill:url(#SVGID_8_)"
   d="M 83.5,26.76 C 79,25.62 72.6,24.68 66.5,24.06 61.4,23.54 55.8,24.58 50,24.58 44.2,24.58 38.6,23.54 33.5,24.06 27.4,24.58 19.8,26.76 15.3,27.9 7.5,29.88 4,31.95 4,34.86 c 0,2.91 4.1,4.26 12,6.23 4.5,1.14 8,3.74 15.9,4.67 5.1,0.62 13.6,-1.25 19.3,-1.25 5.8,0 13.4,1.87 18.5,1.35 6.1,-0.52 9.7,-3.01 14.2,-4.15 7.9,-1.97 12,-4.05 12,-6.96 0,-2.91 -4.5,-6.02 -12.4,-7.99 z"
   id="path170" />
	
		<radialGradient
   id="SVGID_9_"
   cx="140.2542"
   cy="998.92029"
   r="33.431301"
   gradientTransform="matrix(0,0.9331,1.4131,0,-1362.2303,-123.9102)"
   gradientUnits="userSpaceOnUse">
		<stop
   offset="3.200000e-03"
   style="stop-color:#b00025"
   id="stop172" />
		<stop
   offset="0.3326"
   style="stop-color:#a40022"
   id="stop174" />
		<stop
   offset="0.9409"
   style="stop-color:#82001b"
   id="stop176" />
		<stop
   offset="1"
   style="stop-color:#7e001a"
   id="stop178" />
	</radialGradient>
	<path
   style="fill:url(#SVGID_9_)"
   d="M 64.6,4.44 C 61.8,3.71 57.2,4.03 54.4,4.44 47.3,5.69 48.3,4.96 41.6,4.34 38.9,4.03 35.3,3.82 32.7,4.65 22.7,7.77 21.5,16.59 15.2,30.09 c 0.1,12.36 70,12.25 69.9,0 C 79,17.21 75,7.24 64.6,4.44 Z"
   id="path181" />
	<path
   style="opacity:0.2;fill:#ff2b57;enable-background:new"
   d="m 38.8,10.35 c 3.2,2.28 7.1,3.43 11,2.91 3.5,-0.41 6.9,-1.77 10.1,-3.32 0.5,-0.31 1.1,0.31 0.9,0.94 -0.5,1.35 -5.5,6.44 -11.4,6.44 -5.5,0 -9.2,-2.39 -11.1,-5.82 -0.4,-0.52 -0.2,-1.66 0.5,-1.15 z"
   id="path183" />
	<path
   style="fill:#7c001a"
   d="m 82.1,23.44 c -11.6,6.85 -52.3,6.85 -63.8,-0.1 -1,2.18 -2,4.47 -3,6.75 0.1,12.36 70,12.25 69.9,0 -1.1,-2.19 -2.1,-4.47 -3.1,-6.65 z"
   id="path185" />
</g>
<g
   id="magnifier_1_"
   transform="matrix(-1,0,0,1,127.27118,0)">
	<g
   style="opacity:0.6"
   id="g195">
		
			<radialGradient
   id="SVGID_10_"
   cx="191.424"
   cy="-1029.1537"
   r="41.908001"
   gradientTransform="matrix(0.9938,0.1109,0.1109,-0.9938,-14.8125,-1002.5296)"
   gradientUnits="userSpaceOnUse">
			<stop
   offset="0"
   style="stop-color:#ffffff"
   id="stop188" />
			<stop
   offset="1"
   style="stop-color:#fdfdfd"
   id="stop190" />
		</radialGradient>
		<path
   style="fill:url(#SVGID_10_)"
   d="M 90.3,43.4 C 97.6,52.6 96.1,66.1 87,73.5 77.9,80.9 64.4,79.3 57,70.1 49.6,60.9 51.2,47.4 60.4,40 69.6,32.6 82.9,34.2 90.3,43.4 Z"
   id="path193" />
	</g>
	<polygon
   style="fill:#d6d6d6"
   points="95.48,90.3 82.84,74.52 88.52,70 101.16,85.78 "
   id="polygon197" />
	
		<radialGradient
   id="SVGID_11_"
   cx="42.487301"
   cy="-1219.8276"
   r="48.964001"
   gradientTransform="matrix(0.9997,-0.0234,-0.0234,-0.9997,1.0401,-1186.1471)"
   gradientUnits="userSpaceOnUse">
		<stop
   offset="0"
   style="stop-color:#efefef"
   id="stop199" />
		<stop
   offset="0.2274"
   style="stop-color:#eaeaea"
   id="stop201" />
		<stop
   offset="0.4939"
   style="stop-color:#dcdcdc"
   id="stop203" />
		<stop
   offset="0.7789"
   style="stop-color:#c4c4c4"
   id="stop205" />
		<stop
   offset="1"
   style="stop-color:#adadad"
   id="stop207" />
	</radialGradient>
	<path
   style="fill:url(#SVGID_11_)"
   d="M 92.5,41.3 C 84.1,30.7 68.8,29 58.3,37.5 47.8,46 46.1,61.4 54.5,71.9 c 8.4,10.5 23.7,12.3 34.2,3.8 10.5,-8.5 12.2,-23.9 3.8,-34.4 z m -7.36,29.87 c -8.04,6.43 -19.78,5.2 -26.21,-2.93 -6.43,-8.13 -5.11,-19.87 2.93,-26.4 8.04,-6.53 19.78,-5.2 26.21,2.93 6.44,8.13 5.11,19.96 -2.93,26.4 z"
   id="path210" />
	
		<radialGradient
   id="SVGID_12_"
   cx="93.197601"
   cy="48.415199"
   r="13.6102"
   gradientTransform="matrix(1,0,0,-1,0,130)"
   gradientUnits="userSpaceOnUse">
		<stop
   offset="0"
   style="stop-color:#9759e4"
   id="stop212" />
		<stop
   offset="0.0404"
   style="stop-color:#9658e3"
   id="stop214" />
		<stop
   offset="0.5168"
   style="stop-color:#7c39e0"
   id="stop216" />
		<stop
   offset="1"
   style="stop-color:#7535e0"
   id="stop218" />
	</radialGradient>
	<path
   style="fill:url(#SVGID_12_)"
   d="m 113.1,100.6 -0.4,-0.5 c -0.4,-3.4 -2.4,-7.9 -5.8,-12.2 -3,-3.8 -6.4,-6.6 -9.4,-7.9 -0.8,-0.4 -1.5,-1 -2.1,-1.7 l -0.8,-1 -6.2,5 0.8,1 c 0.6,0.7 1,1.5 1.2,2.4 0.6,3.3 2.6,7.3 5.6,11 3.4,4.3 7.3,7.3 10.5,8.4 l 0.4,0.5 c 0.4,0.5 1,0.8 1.7,0.8 0.5,0 0.9,-0.2 1.3,-0.5 l 0.9,-0.7 c 0.2,-0.1 0.4,-0.2 0.6,-0.4 0.2,-0.1 0.3,-0.3 0.5,-0.5 l 0.9,-0.7 c 0.9,-0.7 1.1,-2.1 0.3,-3 z"
   id="path221" />
	<path
   style="fill:#bababa"
   d="M 96.6,80.4 90.8,85 c -0.7,0.5 -1.6,0.4 -2.1,-0.2 l -0.4,-0.6 c -0.5,-0.7 -0.4,-1.6 0.2,-2.1 l 5.8,-4.7 c 0.7,-0.5 1.6,-0.4 2.1,0.2 l 0.4,0.6 c 0.6,0.7 0.5,1.6 -0.2,2.2 z"
   id="path223" />
</g>
<g
   id="hand_1_"
   transform="matrix(-1,0,0,1,127.27118,0)">
	
		<radialGradient
   id="palm_2_"
   cx="-14.4023"
   cy="165.9153"
   r="21.684601"
   gradientTransform="matrix(-0.635,-0.7725,-0.8167,0.6714,227.4518,-7.6063)"
   gradientUnits="userSpaceOnUse">
		<stop
   offset="0.3074"
   style="stop-color:#ffc732"
   id="stop226" />
		<stop
   offset="1"
   style="stop-color:#feac0d"
   id="stop228" />
	</radialGradient>
	<path
   id="palm_1_"
   style="fill:url(#palm_2_)"
   d="m 101.53,97.62 c -0.82,0.87 -1.56,1.81 -2.12,2.86 -0.81,1.5 -8.06,4.3 -4.06,10.29 1.17,1.61 4.82,6.69 8.02,8.1 6.69,2.95 16.21,-6.33 17.1,-6.82 5.6,-3.05 -8.94,-17.41 -13.34,-17.3 -0.53,0.04 -1.32,0.19 -2.03,0.3 -1.37,0.24 -2.71,1.67 -3.57,2.57 z" />
	
		<radialGradient
   id="finger_4_"
   cx="75.214897"
   cy="-22.3479"
   r="15.8888"
   gradientTransform="matrix(0.5293,-0.8484,-0.8484,-0.5293,59.3647,147.1015)"
   gradientUnits="userSpaceOnUse">
		<stop
   offset="0"
   style="stop-color:#feac0d"
   id="stop232" />
		<stop
   offset="1"
   style="stop-color:#ffc732"
   id="stop234" />
	</radialGradient>
	<path
   id="finger_10_"
   style="fill:url(#finger_4_)"
   d="m 119.9,107.09 -5.74,4.2 c -0.75,0.52 -0.98,1.47 -0.58,2.23 v 0 c 0.42,0.84 1.49,1.12 2.37,0.68 l 6.22,-3.44 c 1.01,-0.53 1.41,-1.77 0.84,-2.71 l -0.29,-0.48 c -0.6,-0.96 -1.89,-1.18 -2.82,-0.48 z" />
	
		<radialGradient
   id="finger_6_"
   cx="94.588699"
   cy="-24.964399"
   r="15.8727"
   gradientTransform="matrix(0.9078,-0.4835,-0.4667,-0.8846,12.2787,114.8262)"
   gradientUnits="userSpaceOnUse">
		<stop
   offset="0"
   style="stop-color:#feac0d"
   id="stop238" />
		<stop
   offset="1"
   style="stop-color:#ffc732"
   id="stop240" />
	</radialGradient>
	<path
   id="finger_5_"
   style="fill:url(#finger_6_)"
   d="m 98.35,114.61 c 0,0 1.74,-0.08 4.02,-0.72 6.9,-1.96 2.59,-8.93 1.94,-10.03 -3.31,-5.64 2.14,-7.99 5.8,-11.2 0.76,-0.67 3.18,-3.19 2.54,-5.57 -1.53,-3.61 -4.58,-1.2 -11.4,3.39 -1.86,1.25 -3.6,2.63 -5.17,4.23 -7.5,7.59 -0.97,16.25 2.27,19.9 z" />
	
		<radialGradient
   id="finger_7_"
   cx="89.401901"
   cy="-31.464399"
   r="18.059999"
   gradientTransform="matrix(0.7524,-0.6587,-0.6587,-0.7524,34.0669,128.7977)"
   gradientUnits="userSpaceOnUse">
		<stop
   offset="0"
   style="stop-color:#feac0d"
   id="stop244" />
		<stop
   offset="1"
   style="stop-color:#ffc732"
   id="stop246" />
	</radialGradient>
	<path
   id="finger_3_"
   style="fill:url(#finger_7_)"
   d="m 114.64,96.58 -7.56,6.87 c -1.02,0.91 -0.41,1.75 0.32,2.82 v 0 c 0.78,1.18 1.64,2.04 2.88,1.21 l 8.41,-5.83 c 1.42,-0.98 1.79,-2.91 0.77,-4.21 l -0.52,-0.66 c -1.06,-1.32 -3.02,-1.42 -4.3,-0.2 z" />
	
		<radialGradient
   id="finger_8_"
   cx="97.041496"
   cy="-34.2785"
   r="17.2586"
   gradientTransform="matrix(0.8382,-0.5454,-0.5454,-0.8382,21.8559,118.5421)"
   gradientUnits="userSpaceOnUse">
		<stop
   offset="0"
   style="stop-color:#feac0d"
   id="stop250" />
		<stop
   offset="1"
   style="stop-color:#ffc732"
   id="stop252" />
	</radialGradient>
	<path
   id="finger_2_"
   style="fill:url(#finger_8_)"
   d="m 110.88,91.9 -6.19,6.28 c -0.93,0.92 -1.03,2.33 -0.28,3.32 v 0 c 0.8,1.09 2.4,1.23 3.54,0.38 l 7.06,-5.32 c 1.31,-1 1.57,-2.87 0.53,-4.07 l -0.53,-0.61 c -1.08,-1.21 -2.97,-1.21 -4.13,0.02 z" />
	
		<radialGradient
   id="finger_9_"
   cx="80.973198"
   cy="-26.302799"
   r="17.2647"
   gradientTransform="matrix(0.6377,-0.7703,-0.7703,-0.6377,48.0684,139.4478)"
   gradientUnits="userSpaceOnUse">
		<stop
   offset="0"
   style="stop-color:#feac0d"
   id="stop256" />
		<stop
   offset="1"
   style="stop-color:#ffc732"
   id="stop258" />
	</radialGradient>
	<path
   id="finger_1_"
   style="fill:url(#finger_9_)"
   d="m 117.65,102.04 -6.13,5.25 c -0.93,0.76 -1.13,2.04 -0.52,3 v 0 c 0.64,1.06 2.08,1.32 3.19,0.63 l 6.85,-4.31 c 1.28,-0.81 1.67,-2.49 0.81,-3.67 l -0.43,-0.6 c -0.89,-1.17 -2.61,-1.32 -3.77,-0.3 z" />
	<path
   id="tone_2_"
   style="fill:#faa400"
   d="m 118.86,101.51 c -0.6,-0.97 -7.14,5.5 -8.6,5.44 -1.67,-0.07 -2.82,-1.81 -2.01,-3.33 0.92,-1.71 7.58,-7.21 7.28,-7.59 -0.56,-0.71 -7.88,8.24 -10.39,5.07 -1.56,-1.96 0.55,-3.56 1.77,-4.9 0.72,-0.79 4.2,-3.9 4,-4.16 -0.2,-0.25 -1.04,0.52 -1.15,0.59 -0.72,0.45 -4.77,4.08 -5.72,5.24 -1.57,1.92 -1.21,3.35 -0.61,4.21 0.7,1.01 1.43,2.5 1.83,3.66 0.84,2.47 -0.16,6.13 -0.03,6.45 0.14,0.34 1.12,-1.69 1.31,-3.51 0.11,-1.07 1.15,-1.4 1.99,-0.72 0.51,0.42 0.96,0.82 1.12,1.04 0.34,0.46 2.36,3.15 2.91,4.18 0.21,0.4 0.4,0.7 0.81,1.01 0.3,0.23 0.64,0.4 1.01,0.5 1.64,0.45 3.17,-0.58 4.41,-1.44 0.74,-0.52 3.86,-2.4 4.23,-3.3 -1.61,1.2 -7.11,5.64 -8.55,3.28 -0.78,-1.34 0.6,-1.85 1.48,-2.41 1,-0.63 2.77,-1.95 3.63,-2.76 0.24,-0.23 1.63,-1.25 1.48,-1.45 -0.23,-0.29 -3.13,1.87 -3.46,2.11 -1.19,0.85 -3.49,2.91 -5.08,1.94 -0.58,-0.36 -0.99,-1.04 -0.99,-1.73 0,-1.66 7.64,-6.92 7.33,-7.42 z" />
</g>
</svg>
